<svg width="8134" height="677" viewBox="0 0 8134 677" fill="none" xmlns="http://www.w3.org/2000/svg">
<path fill-rule="evenodd" clip-rule="evenodd" d="M3698.93 575.9V594.842C3694.5 617.764 3674.18 635.33 3649.89 635.33H3649.41C3622.22 635.024 3600.08 612.717 3600.08 585.36C3600.08 558.025 3622.22 535.719 3649.41 535.551H3649.89C3674.18 535.551 3694.5 552.978 3698.93 575.9ZM3740.63 671.082V585.36V499.191H3698.93V509.119C3684.71 499.97 3667.9 494.613 3649.89 494.613H3649.41C3599.77 494.92 3559.28 535.557 3559.28 585.36C3559.28 635.167 3599.77 675.823 3649.41 676.129H3649.89C3667.9 676.129 3684.71 670.777 3698.93 661.606V671.082H3740.63ZM3896.79 575.9V594.842C3892.36 617.764 3872.04 635.33 3847.74 635.33H3847.29C3819.93 635.024 3797.79 612.717 3797.79 585.36C3797.79 558.025 3819.93 535.719 3847.29 535.551H3847.74C3872.04 535.551 3892.36 552.978 3896.79 575.9ZM3938.49 671.082V585.36V440.226H3896.79V509.119C3882.59 499.97 3865.78 494.613 3847.74 494.613H3847.29C3797.48 494.921 3756.99 535.557 3756.99 585.36C3756.99 635.167 3797.48 675.823 3847.29 676.129H3847.74C3865.78 676.129 3882.59 670.777 3896.79 661.606V671.082H3938.49ZM4356.53 594.842V575.9C4352.1 552.978 4331.78 535.551 4307.64 535.551H4307.17C4279.83 535.719 4257.67 558.025 4257.67 585.36C4257.67 612.717 4279.83 635.024 4307.17 635.33H4307.64C4331.78 635.33 4352.1 617.764 4356.53 594.842ZM4398.25 585.36V671.082H4356.53V661.606C4342.47 670.777 4325.66 676.129 4307.64 676.129H4307.17C4257.36 675.823 4216.87 635.167 4216.87 585.36C4216.87 535.557 4257.36 494.92 4307.17 494.613H4307.64C4325.66 494.613 4342.47 499.97 4356.53 509.119V499.191H4398.25V585.36ZM4525.37 549.474H4569.67C4569.67 538.636 4567.47 529.304 4563.07 521.525C4558.68 513.725 4552.11 507.447 4543.4 502.726C4542.48 502.106 4541.56 501.639 4540.49 501.187C4528.42 495.538 4512.38 492.629 4492.37 492.629C4468.07 492.629 4449.74 499.052 4437.51 512.043C4427.74 522.428 4423 535.113 4423 550.07C4423 568.73 4432.17 582.166 4450.81 590.869C4457.83 594.238 4474.95 598.977 4502.14 604.785C4520.34 608.764 4529.49 614.408 4529.49 621.589C4529.49 625.86 4527.66 629.533 4523.68 632.899C4518.63 637.172 4511 639.322 4500.76 639.322C4487.17 639.322 4477.55 637.026 4471.89 632.588C4466.24 628.317 4463.33 622.047 4463.33 614.102H4416.89C4416.89 624.649 4419.11 633.838 4423.56 641.708C4428.01 649.58 4434.69 656.109 4443.63 661.307C4457.83 669.408 4476.48 673.532 4499.55 673.532C4514.98 673.532 4528.73 670.946 4540.49 665.9C4542.94 664.829 4545.07 663.765 4547.37 662.531C4565.55 652.452 4574.72 636.407 4574.72 614.408C4574.72 596.388 4565.41 582.926 4546.6 574.059C4545.3 573.415 4543.55 572.764 4541.55 572.018C4541.21 571.888 4540.85 571.755 4540.49 571.619C4531.18 568.414 4516.05 564.437 4494.95 559.861C4476.48 555.733 4467.15 550.376 4467.15 543.665C4467.15 538.926 4468.83 535.113 4472.05 532.358C4476.32 528.685 4483.95 526.861 4494.95 526.861C4506.12 526.861 4514.2 529.304 4518.94 534.043C4521.86 536.951 4523.99 542.127 4525.37 549.474ZM4551.04 440.829C4551.04 439.307 4550.58 437.938 4549.66 436.705C4548.74 435.329 4547.51 434.423 4545.99 433.955C4544.76 433.505 4542.93 433.193 4540.49 433.193C4540.28 433.193 4540.04 433.162 4539.78 433.129C4539.47 433.09 4539.14 433.047 4538.8 433.047H4528.87V461.758H4533.47V449.55H4536.22L4539.87 450.615C4540.18 450.76 4540.34 450.926 4540.49 451.071C4541.72 452.136 4543.1 454.288 4544.76 457.182L4547.36 461.758H4552.87L4549.5 456.117L4545.23 450.452C4544.61 449.855 4543.85 449.381 4542.79 448.93C4545.23 448.791 4547.22 447.865 4548.74 446.327C4550.28 444.811 4551.04 442.965 4551.04 440.829ZM4545.38 439.003C4545.85 439.616 4545.99 440.378 4545.99 441.298C4545.99 442.507 4545.54 443.578 4544.61 444.355C4543.85 445.117 4542.48 445.425 4540.49 445.57H4539.12H4533.47V437.01H4538.81H4540.49C4541.86 437.173 4542.79 437.318 4543.4 437.484C4544.31 437.769 4544.92 438.244 4545.38 439.003ZM4567.08 447.093C4567.08 451.523 4566 455.956 4563.56 460.227C4561.28 464.496 4558.05 467.72 4553.79 469.994C4549.5 472.458 4545.23 473.522 4540.63 473.522H4540.49C4535.91 473.522 4531.63 472.458 4527.36 469.994C4523.06 467.713 4519.86 464.496 4517.56 460.227C4515.12 455.956 4514.06 451.523 4514.06 447.093C4514.06 442.346 4515.12 437.922 4517.56 433.634C4520.01 429.364 4523.23 426.164 4527.5 423.86C4531.79 421.562 4536.05 420.497 4540.49 420.352H4540.63C4545.07 420.352 4549.35 421.567 4553.62 423.86C4557.91 426.164 4561.28 429.364 4563.56 433.634C4566 437.922 4567.08 442.346 4567.08 447.093ZM4562.65 447.093C4562.65 443.111 4561.73 439.454 4559.74 435.929C4557.75 432.418 4555 429.669 4551.49 427.679C4547.98 425.849 4544.31 424.779 4540.63 424.779H4540.49C4536.82 424.779 4533.16 425.849 4529.65 427.679C4526.12 429.669 4523.38 432.418 4521.38 435.929C4519.41 439.454 4518.34 443.111 4518.34 447.093C4518.34 450.909 4519.41 454.562 4521.38 458.091C4523.23 461.442 4525.98 464.208 4529.48 466.175C4533 468.17 4536.67 469.092 4540.49 469.092H4540.63C4544.47 469.092 4548.12 468.164 4551.65 466.175C4555.16 464.208 4557.91 461.442 4559.74 458.091C4561.73 454.562 4562.65 450.909 4562.65 447.093ZM4432.63 440.221L4307.17 231.201L4168.44 0.490071L4111.31 34.8637L4020.56 89.4101L4111.31 240.521L4231.1 440.221H4432.63ZM4160.66 575.9V594.842C4156.23 617.764 4135.9 635.33 4111.76 635.33H4111.31C4083.96 635.024 4061.81 612.717 4061.81 585.36C4061.81 558.025 4083.96 535.719 4111.31 535.551H4111.76C4135.9 535.551 4156.23 552.978 4160.66 575.9ZM4202.37 671.082V585.36V440.226H4160.66V509.119C4146.45 499.97 4129.8 494.613 4111.76 494.613H4111.31C4061.5 494.921 4021.01 535.557 4021.01 585.36C4021.01 635.167 4061.5 675.823 4111.31 676.129H4111.76C4129.8 676.129 4146.45 670.777 4160.66 661.606V671.082H4202.37ZM4111.31 358.006L4160.5 440.221H3959.12L3847.29 254.122L3842.41 246.019L3847.29 243.124L3990.45 156.933L4111.31 358.006ZM4004.65 494.618H3959.28V671.094H4004.65V494.618ZM3959.28 441.126H4004.65V481.001H3959.28V441.126ZM3847.29 371.453L3888.54 440.221H3687.01L3664.39 402.479L3812.44 313.556L3847.29 371.453Z" fill="#B5B5B5"/>
<path fill-rule="evenodd" clip-rule="evenodd" d="M5886.2 86.3852C5884.55 86.6337 5882.93 89.7842 5880.93 93.6735L5880.93 93.674L5880.93 93.6754L5880.93 93.676C5878.91 97.606 5876.5 102.29 5873.27 105.496C5871.27 107.455 5869.05 108.528 5866.93 109.558C5864.07 110.94 5861.39 112.241 5859.59 115.496C5859 116.561 5858.8 118.015 5858.58 119.642C5858.36 121.238 5858.12 123 5857.46 124.723C5856.28 127.845 5853.78 129.69 5851.37 131.461C5848.41 133.638 5845.61 135.704 5845.61 139.891C5845.59 145.658 5849.4 148.14 5854 151.132C5855.93 152.392 5858.01 153.743 5860 155.467C5861.79 157.073 5863.03 158.509 5864.14 159.794C5866.25 162.244 5867.9 164.147 5872.05 165.638C5874.6 166.507 5877.74 165.626 5881.1 164.681C5884.86 163.626 5888.9 162.491 5892.71 163.633C5893.1 163.748 5893.49 163.862 5893.87 163.974C5899.38 165.586 5904.44 167.066 5905.69 172.768C5906.86 178.393 5905.6 187.113 5898.41 186.108C5897.91 186.051 5897.08 185.86 5895.97 185.604C5891.6 184.595 5882.82 182.571 5872.52 183.664C5856.9 185.443 5839.11 190.532 5837.36 207.93C5836.4 217.65 5848.43 229.119 5860.04 226.791C5864.81 225.85 5865.41 222.127 5866.02 218.293C5866.44 215.673 5866.87 213 5868.64 211.13C5871.15 208.555 5878.76 212.159 5889.06 217.034C5902.33 223.316 5920.06 231.709 5937.06 231.709C5949.77 231.709 5959.24 228.498 5968.62 218.656C5968.86 218.456 5969.1 218.196 5969.36 217.919C5970.09 217.157 5970.93 216.27 5971.93 216.194C5973.2 216.298 5975.44 217.559 5976.18 218.095C5980.77 221.788 5985.16 226.183 5989.85 230.887C6009.98 251.075 6035.77 276.94 6108.26 277.311C6120.84 277.39 6135.15 283.387 6146.85 294.045C6157.27 303.686 6163.37 318.695 6169.3 333.924C6178.26 356.752 6194.28 378.977 6218.57 403.686C6219.91 405.012 6239.92 420.566 6241.52 421.727C6241.77 421.899 6243.24 425.408 6242.73 427.362L6242.71 427.953C6242.09 443.301 6240.4 485.316 6272.12 487.238C6278.64 487.573 6278.32 483.805 6278.03 480.348C6277.97 479.648 6277.91 478.96 6277.91 478.321C6277.91 476.806 6277.85 475.294 6277.79 473.781C6277.56 467.79 6277.33 461.798 6280.48 455.661C6283.04 450.675 6280.62 446.957 6277.41 442.016C6273.82 436.491 6269.24 429.436 6269.5 417.367C6269.71 407.324 6264.81 404.211 6259.28 400.687C6255.42 398.235 6251.25 395.583 6248.28 390.257C6247.49 388.843 6246.72 387.554 6245.99 386.332L6245.99 386.329L6245.99 386.328C6242.83 381.046 6240.42 377.01 6240.63 369.544C6242.27 317.769 6229.62 283.746 6223.32 275.391C6222.27 274.048 6221.25 272.877 6220.36 271.839L6220.35 271.834L6220.35 271.833C6217.04 267.998 6215.28 265.961 6218.82 263.66C6245.64 245.945 6251.72 229.473 6251.72 229.473L6252.42 227.831C6266.4 194.953 6279.09 165.113 6296.49 151.859C6300.05 149.074 6309.19 142.243 6314.77 139.58C6331.3 131.798 6339.97 127.081 6344.78 122.413C6352.34 115.033 6358.35 99.6153 6351.08 90.2732C6342.03 78.7433 6326.4 87.8904 6319.5 91.9856C6283.43 113.392 6269.86 146.768 6258.49 174.744C6254.32 185.004 6250.45 194.538 6245.86 202.488C6232.23 226.176 6210.09 243.574 6190.28 244.994C6175.44 246.097 6159.43 243.093 6143.5 236.091C6110.68 221.707 6090.45 203.777 6081.98 196.262C6080.44 194.901 6079.29 193.881 6078.52 193.286C6077.2 192.265 6074.74 190.094 6071.32 187.073L6071.32 187.072C6047.82 166.313 5978.95 105.476 5921.78 102.656C5921.78 102.656 5913.65 86.373 5911.61 86.1048C5908.77 85.7439 5905.89 89.2167 5903.29 92.36L5903.29 92.3602C5901.5 94.5249 5899.84 96.5332 5898.41 97.0253C5896.71 97.5876 5894.42 94.6351 5892.15 91.6964C5889.98 88.9023 5887.83 86.1208 5886.2 86.3852ZM5597.88 559.998C5591.71 559.843 5586.47 554.784 5586.47 548.535L5586.49 344.232H5519.16V569.429C5519.16 580.477 5528.1 589.473 5539.07 589.473H5656.76C5667.8 589.473 5676.64 580.477 5676.64 569.429V344.232H5609.37L5609.31 548.535C5609.31 554.784 5604.07 559.843 5597.88 559.998ZM5721.41 344.232H5823.31H5925.23C5937.29 344.232 5947.13 354.037 5947.13 366.219V589.473H5879.72V384.69C5879.68 378.419 5874.54 373.44 5868.32 373.44C5862.03 373.44 5856.99 378.297 5856.9 384.513V589.473H5789.79V384.513C5789.65 378.297 5784.6 373.44 5778.31 373.44C5772.04 373.44 5766.96 378.419 5766.92 384.69V589.473H5699.53V366.219C5699.53 354.037 5709.34 344.232 5721.41 344.232ZM5474.24 527.847H5406.22V589.473H5338.92V344.232H5474.67C5486.82 344.232 5496.31 354.11 5496.31 366.322V505.741C5496.31 517.994 5486.45 527.847 5474.24 527.847ZM5429.06 385.116C5429.11 378.297 5423.55 373.44 5417.66 373.44H5406.22V497.491H5417.66C5423.59 497.491 5429.11 492.768 5429.06 485.969V385.116ZM6178.49 590.61C6195.03 590.61 6208.38 577.072 6208.38 560.407C6208.38 543.57 6195.03 530.244 6178 530.244C6161.8 530.244 6148.38 543.983 6148.38 560.407C6148.38 577.163 6161.8 590.61 6178.49 590.61ZM6153.18 560.495C6153.18 546.324 6164.54 534.638 6178.08 534.638H6178.49C6192.33 534.638 6203.56 546.3 6203.56 560.495C6203.56 574.708 6192.33 586.294 6178.49 586.294C6164.54 586.294 6153.18 574.708 6153.18 560.495ZM6192.62 577.887H6184.59L6174.25 564.133V577.887H6167.69V543.123H6174.58C6183.96 543.123 6188.94 546.657 6188.94 553.439C6188.94 557.962 6186 561.959 6181.9 563.176L6181.42 563.349L6192.62 577.887ZM6175.39 558.493C6180.05 558.493 6182.53 556.843 6182.53 553.523C6182.53 550.566 6180.15 549.05 6175.59 549.05H6174.25V558.493H6175.39ZM6060.12 527.903V589.473H6127.4V366.219C6127.4 354.037 6117.59 344.232 6105.5 344.232H5991.86C5979.8 344.232 5969.98 354.037 5969.98 366.219V589.473H6037.24V527.903H6060.12ZM6060.12 384.604V497.529H6037.24V384.775C6037.3 378.553 6042.43 373.562 6048.64 373.562C6054.93 373.562 6059.95 378.358 6060.12 384.604Z" fill="#B5B5B5"/>
<path fill-rule="evenodd" clip-rule="evenodd" d="M1949.1 258.821H1897.59L1835.52 174.098H1834.98V258.821H1794.32V61.7536H1887.84C1918.74 61.7536 1942.86 77.6894 1942.86 115.402C1942.86 156.038 1919.82 173.833 1880.79 173.302L1949.1 258.821ZM1872.11 99.9987H1834.43V148.336H1869.13C1885.94 148.336 1902.2 144.618 1902.2 123.105C1902.2 107.17 1890.55 99.9987 1872.11 99.9987ZM2044.93 231.731C2072.85 231.731 2084.24 219.248 2096.43 200.392V235.449C2082.61 251.916 2061.74 263.602 2039.51 263.602C1984.21 263.602 1959.82 227.482 1959.82 175.161C1959.82 122.308 1987.19 88.5786 2035.17 88.5786C2086.13 88.5786 2104.84 121.246 2104.84 169.318C2104.84 174.615 2104.36 179.913 2103.89 185.09C2103.75 186.661 2103.61 188.222 2103.48 189.768H1998.85C1999.39 218.452 2016.2 231.731 2044.93 231.731ZM2037.34 125.23C2018.64 125.23 2000.75 136.65 1998.85 157.897H2077.19C2076.37 135.853 2057.67 125.23 2037.34 125.23ZM2205.28 231.731C2233.2 231.731 2244.58 219.248 2256.78 200.392V235.449C2242.96 251.916 2222.09 263.602 2199.86 263.602C2144.56 263.602 2120.16 227.482 2120.16 175.161C2120.16 122.308 2147.54 88.5786 2195.52 88.5786C2246.48 88.5786 2265.18 121.246 2265.18 169.318C2265.18 174.615 2264.71 179.913 2264.24 185.09C2264.1 186.661 2263.96 188.222 2263.83 189.768H2159.2C2159.74 218.452 2176.55 231.731 2205.28 231.731ZM2197.69 125.23C2178.98 125.23 2161.09 136.65 2159.2 157.897H2237.54C2236.72 135.853 2218.02 125.23 2197.69 125.23ZM2327.41 258.821H2289.19V53.2549H2329.85V128.682H2330.39C2340.42 103.451 2353.7 88.5786 2383.25 88.5786C2431.77 88.5786 2440.71 137.447 2440.71 175.161C2440.71 218.717 2420.38 263.602 2378.1 263.602C2347.19 263.602 2334.45 245.807 2327.95 227.482H2327.41V258.821ZM2366.71 230.137C2388.13 230.137 2403.31 208.094 2403.31 179.144C2403.31 150.195 2396.53 128.417 2364.54 128.417C2335.54 128.417 2327.41 156.303 2327.41 177.02C2327.41 206.765 2333.91 230.137 2366.71 230.137ZM2536 263.602C2483.96 263.602 2456.58 231.731 2456.58 173.567C2456.58 119.122 2480.16 88.5786 2536 88.5786C2592.12 88.5786 2615.7 119.122 2615.7 173.567C2615.7 231.731 2588.32 263.602 2536 263.602ZM2493.99 174.894C2493.99 207.297 2505.37 230.137 2536 230.137C2566.91 230.137 2578.29 207.297 2578.29 174.894C2578.29 148.071 2567.45 128.417 2536.28 128.417C2504.83 128.417 2493.99 148.071 2493.99 174.894ZM2679.55 258.821H2638.89V53.2549H2679.55V172.504H2680.09L2735.12 93.3591H2786.89L2721.02 176.488L2787.43 258.821H2732.95L2680.09 181.534H2679.55V258.821ZM2398.89 454.932L2289.81 382.54C2446.13 356.045 2610.05 333.699 2795.08 322.866C2631.54 365.603 2498.51 409.585 2398.89 454.932ZM2109.8 324.814L2623.02 615.728C2362.1 508.499 2025.81 376.697 1779.64 348.289L2109.8 324.814ZM2288.33 517.766L2204.69 489.885C2131.09 523.398 2073.43 566.997 2031.79 620.73H2188.31C2209.01 583.017 2240.88 548.302 2288.33 517.766ZM2069.94 447.824L2164.34 474.725C2076.54 515.051 2004.5 561.725 1963.67 620.968L1789.66 620.663C1856.43 542.35 1947.74 483.092 2069.94 447.824Z" fill="#B5B5B5"/>
<path fill-rule="evenodd" clip-rule="evenodd" d="M29.123 567.945C-46.6526 502.503 39.1346 360.399 130.08 253.601C51.65 410.46 160.116 468.657 255.233 441.957C255.233 441.957 423.428 396.375 600.837 348.304L507.205 348.507L504.208 233.365L460.48 348.507H395.401L497.827 73.1693H563.74L532.261 155.771L600.453 73.1693H668.035H668.621H799.029L781.541 119.058H715.626L694.173 177.046H756.75L737.498 228.359H674.921L649.977 295.108H725.903L718.227 316.496C872.804 274.615 1006.82 238.312 1008.24 237.958C1016.58 235.872 1017.84 240.044 1011.16 243.38C1011.16 243.38 319.479 543.748 256.902 568.78L255.242 569.444C192.71 594.464 101.9 630.798 29.123 567.945ZM160.184 410.99C160.184 416.676 164.455 420.88 170.208 420.88C175.894 420.88 180.233 416.575 180.233 410.99C180.233 405.372 175.927 401.066 170.208 401.066C164.423 401.066 160.184 405.305 160.184 410.99ZM155.811 410.99C155.811 402.749 162.135 397.097 170.208 397.097C178.281 397.097 184.607 402.749 184.607 410.99C184.607 419.198 178.249 424.85 170.208 424.85C162.168 424.85 155.811 419.232 155.811 410.99ZM240.212 348.507H310.299L413.559 73.1693H348.479L302.103 196.654L310.099 73.1693H240.847L137.587 348.507H202.667L248.18 226.69L240.212 348.507ZM318.749 348.507L422.011 73.1693H487.09L383.829 348.507H318.749ZM170.241 409.54H168.088V406.073H169.905C171.015 406.073 172.293 406.209 172.293 407.655C172.293 409.202 171.552 409.54 170.241 409.54ZM172.663 411.961C174.681 411.86 176.263 410.818 176.263 408.025C176.263 404.426 173.909 403.517 169.972 403.517H164.32V418.454H168.088V412.096H168.726L172.158 418.454H176.497L172.663 411.961ZM814.401 86.2247C814.401 91.9113 818.672 96.1145 824.425 96.1145C830.111 96.1145 834.45 91.8082 834.45 86.2247C834.45 80.6069 830.144 76.3007 824.425 76.3007C818.638 76.3007 814.401 80.5398 814.401 86.2247ZM810.027 86.2247C810.027 77.9838 816.352 72.3317 824.425 72.3317C832.498 72.3317 838.824 77.9838 838.824 86.2247C838.824 94.4329 832.466 100.085 824.425 100.085C816.385 100.085 810.027 94.4673 810.027 86.2247ZM824.458 84.7764H822.305V81.3117H824.122C825.232 81.3117 826.509 81.446 826.509 82.8918C826.509 84.4391 825.769 84.7764 824.458 84.7764ZM826.88 87.1981C828.898 87.0966 830.478 86.0536 830.478 83.2634C830.478 79.6629 828.125 78.7542 824.189 78.7542H818.537V93.6903H822.305V87.3323H822.945L826.375 93.6903H830.714L826.88 87.1981ZM567.6 186.642L571.771 330.151L665.998 78.6075L567.6 186.642Z" fill="#B5B5B5"/>
<path fill-rule="evenodd" clip-rule="evenodd" d="M7854 377.728C7864.56 321.839 7929.93 293.501 7978.16 296.194V296.2C7996.8 297.26 8012.87 302.953 8022.21 313.494L8022.27 313.433C8022.28 313.455 8022.31 313.472 8022.33 313.494C8026.16 309.406 8030 305.325 8033.87 301.271C8036.12 298.905 8042.58 299.664 8048.3 300.713C8054.79 301.899 8061.72 304.598 8066.16 304.604C8070.68 304.604 8081.36 301.303 8091.52 299.768C8101.68 298.238 8111.31 298.473 8109.65 302.604L8100.56 325.279H8100.73L8071.03 399.277C8065.11 414.017 8088.28 410.106 8120.47 375.828C8125.98 379.465 8128.49 380.157 8134 393.921C8106.5 417.711 8080.25 434.806 8043.87 447.422C8011.16 458.769 7987.06 442.338 7979.48 414.945C7933 458.762 7868.24 458.29 7849.65 408.862C7819.44 423.897 7783.32 439.871 7768.34 444.229C7756.59 447.646 7745.89 450.043 7735.86 450.107C7719.78 450.212 7702.22 435.134 7707.76 412.952C7681.11 424.823 7659.95 432.571 7629.41 443.164C7596.69 454.51 7577.88 442.338 7570.29 414.945C7523.8 458.775 7459.02 458.29 7440.46 408.817C7422.2 417.66 7396.94 430.661 7373.69 439.826C7336.3 456.75 7292.49 453.364 7259.75 418.858L7270.46 401.9C7285.87 418.399 7304.66 417.472 7319.39 404.077C7335.08 389.813 7345.04 362.303 7337.9 339.764C7334.76 329.858 7323.67 322.255 7302.86 323.64L7309.3 306.368C7330.58 305.609 7347.22 302.757 7356.4 289.288C7369.3 270.377 7369.51 241.237 7341.84 242.024C7336.96 242.161 7331.2 243.21 7324.51 245.379C7319.71 259.656 7311.27 276.502 7304.47 294.205C7288.96 334.598 7271.6 379.442 7251.42 408.333C7227.38 442.765 7201.68 449.576 7180.97 448.171C7159.3 446.703 7142.31 440.101 7118.57 418.54C7118.45 409.394 7119.36 405.413 7121.09 394.054C7129.39 405.838 7158.03 418.377 7167.31 404.675C7188.08 373.995 7210.93 314.821 7227.98 276.622C7212.57 281.775 7198.27 291.211 7178.06 305.319C7178.3 302.975 7171.32 297.856 7171.59 290.976C7203.96 253.406 7261.27 230.435 7299.87 222.222C7358.85 209.666 7422.15 227.921 7431.65 265.459C7437.98 290.484 7408.65 313.953 7381.1 317.34C7396.96 326.737 7413.79 343.059 7418 363.022C7420.13 373.101 7419.54 383.913 7416.38 394.274C7425.64 389.941 7436.85 384.248 7444.23 381.231C7455.86 300.932 7579.13 275.098 7613.15 313.494L7624.8 301.271C7627.06 298.905 7633.52 299.664 7639.25 300.713C7645.73 301.899 7652.66 304.598 7657.1 304.604C7661.62 304.604 7672.3 301.303 7682.46 299.768C7692.62 298.238 7702.24 298.473 7700.59 302.604L7661.85 399.277C7653.08 421.105 7717.42 382.43 7721.2 380.332L7748.84 321.195L7720.38 321.591L7725.49 297.287L7756.94 297.304C7762.11 290.392 7763.64 282.092 7770.51 276.89C7779.82 269.825 7801.07 273.623 7810.83 267.208C7819.26 261.656 7825.76 253.291 7833.55 240.418C7840.29 229.293 7864.79 232.145 7860.11 242.734L7838.18 297.948L7865.89 297.686C7879.05 298.38 7867.75 320.401 7852.78 320.567L7829.89 320.987L7803.3 390.276C7794.58 412.996 7828.54 392.807 7854 377.728V377.728ZM7599.45 330.317C7596.41 319.799 7587.32 316.974 7579.46 317.816C7560.85 319.815 7542.87 340.615 7533.64 355.084C7518.86 378.272 7522.36 412.44 7545.86 406.083C7570.73 399.354 7603.86 345.595 7599.45 330.317V330.317ZM8008.63 330.317C8005.59 319.799 7996.5 316.974 7988.64 317.816C7970.03 319.815 7952.05 340.615 7942.82 355.084C7928.04 378.272 7931.54 412.44 7955.04 406.083C7979.91 399.354 8013.04 345.595 8008.63 330.317Z" fill="#B5B5B5"/>
</svg>
