<svg width="500" height="500" viewBox="0 0 500 500" fill="none" xmlns="http://www.w3.org/2000/svg">
<path fill-rule="evenodd" clip-rule="evenodd" d="M146.932 1.5C173.591 0.272727 182.091 0 250 0C317.909 0 326.409 0.295454 353.045 1.5C379.682 2.70455 397.864 6.95455 413.773 13.1136C430.432 19.4091 445.545 29.25 458.045 41.9773C470.773 54.4545 480.591 69.5455 486.864 86.2273C493.045 102.136 497.273 120.318 498.5 146.909C499.727 173.614 500 182.114 500 250C500 317.909 499.705 326.409 498.5 353.068C497.295 379.659 493.045 397.841 486.864 413.75C480.591 430.434 470.756 445.55 458.045 458.045C445.545 470.773 430.432 480.591 413.773 486.864C397.864 493.045 379.682 497.273 353.091 498.5C326.409 499.727 317.909 500 250 500C182.091 500 173.591 499.705 146.932 498.5C120.341 497.295 102.159 493.045 86.25 486.864C69.5664 480.59 54.4505 470.756 41.9545 458.045C29.2359 445.561 19.3935 430.452 13.1136 413.773C6.95455 397.864 2.72727 379.682 1.5 353.091C0.272727 326.386 0 317.886 0 250C0 182.091 0.295454 173.591 1.5 146.955C2.70455 120.318 6.95455 102.136 13.1136 86.2273C19.4028 69.5473 29.2527 54.4389 41.9773 41.9545C54.4555 29.2387 69.5562 19.3964 86.2273 13.1136C102.136 6.95455 120.318 2.72727 146.909 1.5H146.932ZM351.023 46.5C324.659 45.2955 316.75 45.0455 250 45.0455C183.25 45.0455 175.341 45.2955 148.977 46.5C124.591 47.6136 111.364 51.6818 102.545 55.1136C90.8864 59.6591 82.5455 65.0455 73.7955 73.7955C65.501 81.8648 59.1177 91.6882 55.1136 102.545C51.6818 111.364 47.6136 124.591 46.5 148.977C45.2955 175.341 45.0455 183.25 45.0455 250C45.0455 316.75 45.2955 324.659 46.5 351.023C47.6136 375.409 51.6818 388.636 55.1136 397.455C59.1136 408.295 65.5 418.136 73.7955 426.205C81.8636 434.5 91.7045 440.886 102.545 444.886C111.364 448.318 124.591 452.386 148.977 453.5C175.341 454.705 183.227 454.955 250 454.955C316.773 454.955 324.659 454.705 351.023 453.5C375.409 452.386 388.636 448.318 397.455 444.886C409.114 440.341 417.455 434.955 426.205 426.205C434.5 418.136 440.886 408.295 444.886 397.455C448.318 388.636 452.386 375.409 453.5 351.023C454.705 324.659 454.955 316.75 454.955 250C454.955 183.25 454.705 175.341 453.5 148.977C452.386 124.591 448.318 111.364 444.886 102.545C440.341 90.8864 434.955 82.5455 426.205 73.7955C418.135 65.5016 408.311 59.1184 397.455 55.1136C388.636 51.6818 375.409 47.6136 351.023 46.5V46.5ZM218.068 327.068C235.901 334.492 255.759 335.494 274.248 329.903C292.738 324.312 308.713 312.475 319.446 296.415C330.178 280.354 335.001 261.065 333.092 241.843C331.183 222.621 322.659 204.658 308.977 191.023C300.255 182.306 289.709 175.632 278.098 171.481C266.488 167.329 254.101 165.804 241.829 167.014C229.558 168.224 217.708 172.14 207.132 178.48C196.556 184.82 187.517 193.426 180.666 203.678C173.815 213.931 169.322 225.575 167.512 237.772C165.701 249.969 166.617 262.416 170.194 274.216C173.771 286.017 179.92 296.877 188.198 306.016C196.476 315.155 206.678 322.345 218.068 327.068ZM159.136 159.136C171.069 147.204 185.235 137.739 200.825 131.281C216.415 124.823 233.125 121.499 250 121.499C266.875 121.499 283.585 124.823 299.175 131.281C314.765 137.739 328.931 147.204 340.864 159.136C352.796 171.069 362.261 185.235 368.719 200.825C375.177 216.415 378.501 233.125 378.501 250C378.501 266.875 375.177 283.585 368.719 299.175C362.261 314.765 352.796 328.931 340.864 340.864C316.765 364.962 284.08 378.501 250 378.501C215.92 378.501 183.235 364.962 159.136 340.864C135.038 316.765 121.499 284.08 121.499 250C121.499 215.92 135.038 183.235 159.136 159.136V159.136ZM407 140.636C409.957 137.847 412.324 134.493 413.961 130.772C415.599 127.052 416.473 123.04 416.532 118.976C416.591 114.911 415.835 110.876 414.306 107.109C412.778 103.343 410.51 99.9207 407.635 97.0463C404.761 94.172 401.339 91.9036 397.573 90.3754C393.806 88.8472 389.771 88.0904 385.706 88.1496C381.642 88.2089 377.63 89.083 373.91 90.7204C370.189 92.3577 366.835 94.7249 364.045 97.6818C358.621 103.432 355.651 111.071 355.766 118.976C355.881 126.88 359.073 134.429 364.663 140.019C370.253 145.609 377.801 148.801 385.706 148.916C393.611 149.031 401.249 146.061 407 140.636V140.636Z" fill="#F8F8F8"/>
</svg>
