<svg width="500" height="500" viewBox="0 0 500 500" fill="none" xmlns="http://www.w3.org/2000/svg">
<path d="M498.39 147.577C498.11 126.583 494.173 105.798 486.756 86.1515C480.324 69.5796 470.5 54.5293 457.912 41.9623C445.324 29.3952 430.249 19.5878 413.65 13.1667C394.223 5.88638 373.7 1.94981 352.954 1.52456C326.244 0.332633 317.775 0 249.972 0C182.169 0 173.478 1.85872e-06 146.962 1.52456C126.226 1.95293 105.713 5.88946 86.295 13.1667C69.6929 19.5834 54.6152 29.3892 42.0267 41.9568C29.4382 54.5244 19.616 69.577 13.1886 86.1515C5.88158 105.531 1.947 126.015 1.55486 146.718C0.36095 173.412 0 181.866 0 249.557C0 317.247 -2.06869e-07 325.895 1.55486 352.395C1.97135 373.129 5.88627 393.586 13.1886 413.017C19.6268 429.586 29.4562 444.633 42.049 457.195C54.6417 469.757 69.7208 479.559 86.3227 485.974C105.687 493.547 126.204 497.765 146.99 498.448C173.728 499.64 182.197 500 250 500C317.803 500 326.494 500 353.01 498.448C373.755 498.04 394.279 494.112 413.705 486.833C430.3 480.405 445.372 470.595 457.959 458.029C470.546 445.463 480.372 430.416 486.811 413.849C494.114 394.445 498.029 373.988 498.445 353.227C499.639 326.561 500 318.106 500 250.388C499.944 182.698 499.944 174.105 498.39 147.577V147.577ZM249.806 377.564C178.893 377.564 121.446 320.213 121.446 249.418C121.446 178.623 178.893 121.272 249.806 121.272C283.849 121.272 316.498 134.773 340.57 158.805C364.642 182.837 378.165 215.431 378.165 249.418C378.165 283.404 364.642 315.999 340.57 340.031C316.498 364.063 283.849 377.564 249.806 377.564V377.564ZM383.274 146.413C379.342 146.417 375.449 145.646 371.816 144.146C368.183 142.646 364.882 140.445 362.101 137.669C359.321 134.894 357.117 131.598 355.614 127.971C354.111 124.344 353.339 120.457 353.343 116.532C353.343 112.61 354.117 108.726 355.62 105.102C357.124 101.478 359.327 98.1857 362.106 95.4123C364.884 92.6388 368.182 90.4388 371.811 88.9378C375.441 87.4368 379.331 86.6643 383.26 86.6643C387.189 86.6643 391.079 87.4368 394.709 88.9378C398.339 90.4388 401.637 92.6388 404.415 95.4123C407.193 98.1857 409.397 101.478 410.9 105.102C412.404 108.726 413.177 112.61 413.177 116.532C413.177 133.052 399.795 146.413 383.274 146.413Z" fill="#F8F8F8"/>
<path d="M250.001 315.79C286.336 315.79 315.791 286.335 315.791 250C315.791 213.666 286.336 184.211 250.001 184.211C213.667 184.211 184.212 213.666 184.212 250C184.212 286.335 213.667 315.79 250.001 315.79Z" fill="#F8F8F8"/>
</svg>
