<svg width="500" height="500" viewBox="0 0 500 500" fill="none" xmlns="http://www.w3.org/2000/svg">
<path fill-rule="evenodd" clip-rule="evenodd" d="M185.725 174.225H278.575V220.475C291.95 193.875 326.25 169.975 377.775 169.975C476.55 169.975 500 222.925 500 320.075V500H400V342.2C400 286.875 386.625 255.675 352.575 255.675C305.35 255.675 285.725 289.3 285.725 342.175V500H185.725V174.225V174.225ZM14.25 495.75H114.25V169.975H14.25V495.75V495.75ZM128.575 63.75C128.579 72.1319 126.916 80.4309 123.685 88.1647C120.453 95.8985 115.716 102.913 109.75 108.8C97.66 120.816 81.2953 127.541 64.25 127.5C47.2347 127.489 30.9078 120.78 18.8 108.825C12.8553 102.918 8.13465 95.8956 4.90859 88.1608C1.68254 80.426 0.0144783 72.1306 0 63.75C0 46.825 6.75 30.625 18.825 18.675C30.9221 6.70396 47.256 -0.00748027 64.275 6.25661e-06C81.325 6.25661e-06 97.675 6.72501 109.75 18.675C121.8 30.625 128.575 46.825 128.575 63.75Z" fill="#F8F8F8"/>
</svg>
