<svg width="500" height="177" viewBox="0 0 500 177" fill="none" xmlns="http://www.w3.org/2000/svg">
<path id="Vector" d="M500 0L134.206 156.748C103.872 169.664 78.3926 176.143 57.7882 176.143C34.4547 176.143 17.5171 167.924 7.01701 151.465C0.412791 140.897 -1.52472 127.5 1.18363 111.25C3.89198 95.0009 11.1004 77.7032 22.7671 59.2943C32.4964 44.4078 48.434 24.8457 70.6217 0.58707C63.0959 12.5102 57.5772 25.6018 54.2882 39.3338C48.4548 64.3893 53.7049 82.7772 70.0383 94.5186C77.8092 99.991 88.4968 102.738 102.122 102.738C112.997 102.738 125.247 100.976 138.872 97.454L500 0Z" fill="#131313"/>
</svg>
