<svg width="500" height="386" viewBox="0 0 500 386" fill="none" xmlns="http://www.w3.org/2000/svg">
<path d="M496.777 5.3841C488.09 -5.72014 472.902 3.17576 466.215 7.05078C418.631 35.0927 411.61 84.468 395.027 112.822C381.985 135.531 360.61 152.198 341.276 153.489C326.984 154.51 311.484 151.739 296.109 145.052C258.463 128.781 238.192 107.718 233.255 104.01C223.109 96.3014 145.129 20.3634 81.5868 17.2592C81.5868 17.2592 73.8368 1.63408 71.8993 1.36324C67.2742 0.842406 62.5242 10.7591 59.0659 11.8008C55.9408 12.905 50.4616 1.13407 47.2949 1.65491C44.1074 2.07158 41.0032 13.8633 34.7948 19.9259C30.2115 24.3634 24.6698 24.0926 21.5239 29.5718C20.4406 31.5718 20.8156 35.0927 19.5864 38.3218C16.9406 44.9886 8.10716 45.6969 8.02382 52.8428C8.02382 60.7803 15.4614 62.3012 21.9614 67.8429C27.1281 72.2596 27.4823 75.3846 33.5032 77.4471C38.8782 79.2805 46.6699 73.5513 53.5866 75.6138C59.3575 77.3013 64.8992 78.5305 66.1284 84.4263C67.2534 89.7597 66.1284 98.1348 59.045 97.1973C56.7117 96.8848 46.5866 93.5722 34.0865 94.9056C18.9822 96.5098 1.73211 101.343 0.0446015 118.031C-0.809571 127.343 10.753 138.239 22.0239 136.073C29.7531 134.593 26.1073 125.531 30.3365 121.156C35.899 115.531 67.2534 140.823 96.4203 140.823C108.775 140.823 117.9 137.698 126.983 128.218C127.816 127.614 128.921 126.093 130.212 125.927C131.661 126.302 133.035 126.922 134.275 127.76C157.837 146.448 175.608 184.01 261.984 184.448C274.109 184.594 288.026 190.26 299.401 200.636C309.401 209.656 315.318 224.073 321.005 238.657C329.714 260.594 345.193 281.761 368.756 305.386C370.006 306.803 389.381 321.636 390.839 322.741C391.089 322.949 392.589 326.22 391.943 328.053C391.527 342.428 389.381 383.678 420.381 385.408C428.006 385.824 426.11 380.595 426.11 376.866C426.006 369.762 424.756 362.595 428.464 355.199C433.735 345.241 417.506 340.428 417.86 318.615C418.256 302.282 404.422 305.053 397.36 292.574C393.402 285.428 389.693 281.49 390.068 272.865C391.589 223.281 379.297 190.615 373.297 182.719C368.568 176.594 364.485 174.323 368.985 171.469C394.818 154.489 400.756 138.677 400.756 138.677C414.506 106.572 426.923 77.3221 443.985 64.3012C447.444 61.8012 456.256 55.1345 461.735 52.6344C477.631 45.0927 486.173 40.5927 490.652 36.2177C498.069 29.1968 503.881 14.28 496.777 5.3841V5.3841Z" fill="#EF744E"/>
</svg>
