<svg width="500" height="141" viewBox="0 0 500 141" fill="none" xmlns="http://www.w3.org/2000/svg">
<path d="M312.313 59.3149C369.667 36.3408 405.375 23.1412 500 0C448.604 3.40434 334.958 11.2155 256.625 26.5455L312.313 59.3358M133.979 135.589H208.979C223.833 113.033 238.604 102.047 255.813 89.8287C242.743 84.7626 229.603 79.8818 216.396 75.188C168.542 96.3659 141.917 124.791 134.042 135.589M148.813 53.5506C81.9375 77.5063 44.7708 103.53 19.6667 135.589H102.479C110.542 124.332 141.271 91.8755 199 69.2983C182.382 63.6786 165.642 58.428 148.792 53.5506M183.125 3.09106H0C184.625 36.5079 273.604 79.5322 416.667 140.351C404.438 131.182 207.271 14.7661 183.146 3.09106" fill="#006AC7"/>
</svg>
