<svg width="500" height="407" viewBox="0 0 500 407" fill="none" xmlns="http://www.w3.org/2000/svg">
<path d="M500 48.2145C481.613 56.3622 461.86 61.8673 441.095 64.3556C462.521 51.5351 478.551 31.357 486.193 7.58651C466.063 19.5435 444.031 27.9599 421.056 32.4698C405.606 15.9734 385.142 5.0393 362.841 1.36511C340.54 -2.30908 317.649 1.4822 297.724 12.1503C277.798 22.8185 261.952 39.7666 252.646 60.3634C243.339 80.9602 241.093 104.053 246.257 126.057C205.467 124.009 165.565 113.408 129.138 94.9402C92.7116 76.4727 60.5752 50.5523 34.8146 18.8611C26.0063 34.0553 20.9416 51.6718 20.9416 70.4333C20.9318 87.323 25.091 103.954 33.0503 118.851C41.0095 133.747 52.5227 146.449 66.5683 155.829C50.2791 155.311 34.3494 150.91 20.1048 142.991V144.312C20.1032 168.001 28.2972 190.96 43.2966 209.295C58.2959 227.63 79.1767 240.211 102.396 244.903C87.2849 248.992 71.4423 249.595 56.0645 246.664C62.6156 267.047 75.3765 284.871 92.5607 297.64C109.745 310.41 130.492 317.487 151.898 317.879C115.561 346.405 70.6837 361.878 24.4869 361.81C16.3036 361.812 8.12729 361.334 0 360.379C46.8924 390.529 101.478 406.53 157.227 406.468C345.944 406.468 449.11 250.166 449.11 114.607C449.11 110.203 449 105.754 448.802 101.35C468.869 86.8381 486.191 68.8676 499.956 48.2806L500 48.2145V48.2145Z" fill="#F8F8F8"/>
</svg>
