<svg width="500" height="334" viewBox="0 0 500 334" fill="none" xmlns="http://www.w3.org/2000/svg">
<path d="M489.53 52.3254C486.7 42.2274 481.185 33.0852 473.574 25.8707C465.748 18.4342 456.156 13.1148 445.703 10.4144C406.583 0.103294 249.854 0.103296 249.854 0.103296C184.516 -0.64009 119.193 2.62951 54.2556 9.89364C43.8026 12.7935 34.2283 18.2318 26.3843 25.7248C18.677 33.1405 13.0944 42.2851 10.1782 52.3046C3.1727 90.0442 -0.231027 128.364 0.0128563 166.748C-0.23711 205.097 3.15827 243.404 10.1782 281.19C13.0319 291.168 18.5937 300.271 26.3218 307.624C34.0499 314.978 43.6737 320.289 54.2556 323.102C93.8961 333.392 249.854 333.392 249.854 333.392C315.276 334.136 380.682 330.867 445.703 323.601C456.156 320.901 465.748 315.582 473.574 308.145C481.183 300.932 486.69 291.789 489.51 281.69C496.698 243.965 500.193 205.63 499.946 167.227C500.486 128.661 496.996 90.1446 489.53 52.3046V52.3254ZM200.028 238.071V95.4446L330.427 166.768L200.028 238.071Z" fill="#F8F8F8"/>
</svg>
